<svg xmlns="http://www.w3.org/2000/svg" viewBox="0 0 64 64"><path fill="#e4177c " d="M35.09 15a1 1 0 0 1-.48-.12L32 13.43l-2.61 1.45a1 1 0 0 1-1.47-1l.51-3.12-2.15-2.2a1 1 0 0 1-.23-1 1 1 0 0 1 .8-.67l2.93-.45 1.31-2.8a1 1 0 0 1 1.82 0l1.31 2.8 2.93.45a1 1 0 0 1 .8.67 1 1 0 0 1-.23 1l-2.15 2.2.51 3.12a1 1 0 0 1-.41 1A1 1 0 0 1 35.09 15zM32 11.29a.91.91 0 0 1 .48.13l1.29.71-.26-1.59a1 1 0 0 1 .27-.86l1.14-1.17-1.53-.23a1 1 0 0 1-.75-.56L32 6.35l-.64 1.37a1 1 0 0 1-.75.56l-1.53.23 1.14 1.17a1 1 0 0 1 .27.86l-.26 1.59 1.29-.71A.91.91 0 0 1 32 11.29zM35.09 61a1 1 0 0 1-.48-.12L32 59.43l-2.61 1.45a1 1 0 0 1-1.47-1l.51-3.12-2.15-2.2a1 1 0 0 1-.23-1 1 1 0 0 1 .8-.67l2.93-.45 1.31-2.8a1 1 0 0 1 1.82 0l1.31 2.8 2.93.45a1 1 0 0 1 .8.67 1 1 0 0 1-.23 1l-2.15 2.2.51 3.12a1 1 0 0 1-.41 1A1 1 0 0 1 35.09 61zM32 57.29a.91.91 0 0 1 .48.13l1.29.71-.26-1.59a1 1 0 0 1 .27-.86l1.14-1.17-1.53-.23a1 1 0 0 1-.75-.56L32 52.35l-.64 1.37a1 1 0 0 1-.75.56l-1.53.23 1.14 1.17a1 1 0 0 1 .27.86l-.26 1.59 1.29-.71A.91.91 0 0 1 32 57.29zM12.09 38a1 1 0 0 1-.48-.12L9 36.43 6.39 37.88a1 1 0 0 1-1.47-1l.51-3.12-2.15-2.2a1 1 0 0 1-.23-1 1 1 0 0 1 .8-.67l2.93-.45 1.31-2.8a1 1 0 0 1 1.82 0l1.31 2.8 2.93.45a1 1 0 0 1 .8.67 1 1 0 0 1-.23 1l-2.15 2.2.51 3.12a1 1 0 0 1-.41 1A1 1 0 0 1 12.09 38zM9 34.29a.91.91 0 0 1 .48.13l1.29.71-.26-1.59a1 1 0 0 1 .27-.86l1.14-1.17-1.53-.23a1 1 0 0 1-.75-.56L9 29.35l-.64 1.37a1 1 0 0 1-.75.56l-1.53.23 1.14 1.17a1 1 0 0 1 .27.86l-.26 1.59 1.29-.71A.91.91 0 0 1 9 34.29zM58.09 38a1 1 0 0 1-.48-.12L55 36.43l-2.61 1.45a1 1 0 0 1-1.47-1l.51-3.12-2.15-2.2a1 1 0 0 1-.23-1 1 1 0 0 1 .8-.67l2.93-.45 1.31-2.8a1 1 0 0 1 1.82 0l1.31 2.8 2.93.45a1 1 0 0 1 .8.67 1 1 0 0 1-.23 1l-2.15 2.2.51 3.12a1 1 0 0 1-.41 1A1 1 0 0 1 58.09 38zM55 34.29a.91.91 0 0 1 .48.13l1.29.71-.26-1.59a1 1 0 0 1 .27-.86l1.14-1.17-1.53-.23a1 1 0 0 1-.75-.56L55 29.35l-.64 1.37a1 1 0 0 1-.75.56l-1.53.23 1.14 1.17a1 1 0 0 1 .27.86l-.26 1.59 1.29-.71A.91.91 0 0 1 55 34.29zM51.09 22a1 1 0 0 1-.48-.12L48 20.43l-2.61 1.45a1 1 0 0 1-1.47-1l.51-3.12-2.15-2.2a1 1 0 0 1-.23-1 1 1 0 0 1 .8-.67l2.93-.45 1.31-2.8a1 1 0 0 1 1.82 0l1.31 2.8 2.93.45a1 1 0 0 1 .8.67 1 1 0 0 1-.23 1l-2.15 2.2.51 3.12a1 1 0 0 1-.41 1A1 1 0 0 1 51.09 22zM48 18.29a.91.91 0 0 1 .48.13l1.29.71-.26-1.59a1 1 0 0 1 .27-.86l1.14-1.17-1.53-.23a1 1 0 0 1-.75-.56L48 13.35l-.64 1.37a1 1 0 0 1-.75.56l-1.53.23 1.14 1.17a1 1 0 0 1 .27.86l-.26 1.59 1.29-.71A.91.91 0 0 1 48 18.29zM19.09 22a1 1 0 0 1-.48-.12L16 20.43l-2.61 1.45a1 1 0 0 1-1.47-1l.51-3.12-2.15-2.2a1 1 0 0 1-.23-1 1 1 0 0 1 .8-.67l2.93-.45 1.31-2.8a1 1 0 0 1 1.82 0l1.31 2.8 2.93.45a1 1 0 0 1 .8.67 1 1 0 0 1-.23 1l-2.15 2.2.51 3.12a1 1 0 0 1-.41 1A1 1 0 0 1 19.09 22zM16 18.29a.91.91 0 0 1 .48.13l1.29.71-.26-1.59a1 1 0 0 1 .27-.86l1.14-1.17-1.53-.23a1 1 0 0 1-.75-.56L16 13.35l-.64 1.37a1 1 0 0 1-.75.56l-1.53.23 1.14 1.17a1 1 0 0 1 .27.86l-.26 1.59 1.29-.71A.91.91 0 0 1 16 18.29zM20.09 53a1 1 0 0 1-.48-.12L17 51.43l-2.61 1.45a1 1 0 0 1-1.47-1l.51-3.12-2.15-2.2a1 1 0 0 1-.23-1 1 1 0 0 1 .8-.67l2.93-.45 1.31-2.8a1 1 0 0 1 1.82 0l1.31 2.8 2.93.45a1 1 0 0 1 .8.67 1 1 0 0 1-.23 1l-2.15 2.2.51 3.12a1 1 0 0 1-.41 1A1 1 0 0 1 20.09 53zM17 49.29a.91.91 0 0 1 .48.13l1.29.71-.26-1.59a1 1 0 0 1 .27-.86l1.14-1.17-1.53-.23a1 1 0 0 1-.75-.56L17 44.35l-.64 1.37a1 1 0 0 1-.75.56l-1.53.23 1.14 1.17a1 1 0 0 1 .27.86l-.26 1.59 1.29-.71A.91.91 0 0 1 17 49.29zM51.09 54a1 1 0 0 1-.48-.12L48 52.43l-2.61 1.45a1 1 0 0 1-1.47-1l.51-3.12-2.15-2.2a1 1 0 0 1-.23-1 1 1 0 0 1 .8-.67l2.93-.45 1.31-2.8a1 1 0 0 1 1.82 0l1.31 2.8 2.93.45a1 1 0 0 1 .8.67 1 1 0 0 1-.23 1l-2.15 2.2.51 3.12a1 1 0 0 1-.41 1A1 1 0 0 1 51.09 54zM48 50.29a.91.91 0 0 1 .48.13l1.29.71-.26-1.59a1 1 0 0 1 .27-.86l1.14-1.17-1.53-.23a1 1 0 0 1-.75-.56L48 45.35l-.64 1.37a1 1 0 0 1-.75.56l-1.53.23 1.14 1.17a1 1 0 0 1 .27.86l-.26 1.59 1.29-.71A.91.91 0 0 1 48 50.29zM38 42H26a3 3 0 0 1-3-3V31a3 3 0 0 1 3-3H38a3 3 0 0 1 3 3v8A3 3 0 0 1 38 42zM26 30a1 1 0 0 0-1 1v8a1 1 0 0 0 1 1H38a1 1 0 0 0 1-1V31a1 1 0 0 0-1-1z" class="color000000 svgShape"/><path fill="#e4177c " d="M37 30H27a1 1 0 0 1-1-1V26a6 6 0 0 1 12 0v3A1 1 0 0 1 37 30zm-9-2h8V26a4 4 0 0 0-8 0zM31 38a1 1 0 0 1-.71-.29l-2-2a1 1 0 0 1 1.42-1.42L31 35.59l3.29-3.3a1 1 0 0 1 1.42 1.42l-4 4A1 1 0 0 1 31 38z" class="color000000 svgShape"/></svg>