<svg xmlns="http://www.w3.org/2000/svg" fill="none" viewBox="0 0 24 24"><path fill="#e4177c " fill-rule="evenodd" d="M4 10.5C4 9.11929 5.11929 8 6.5 8H16.5C17.8807 8 19 9.11929 19 10.5V19.5C19 20.8807 17.8807 22 16.5 22H6.5C5.11929 22 4 20.8807 4 19.5V10.5ZM9 13.5C9 12.1193 10.1193 11 11.5 11C12.8807 11 14 12.1193 14 13.5C14 13.9213 13.8958 14.3183 13.7117 14.6666C14.7896 15.3832 15.5 16.6086 15.5 18C15.5 18.5523 15.0523 19 14.5 19H8.5C7.94772 19 7.5 18.5523 7.5 18C7.5 16.6086 8.21041 15.3832 9.28829 14.6666C9.10422 14.3183 9 13.9213 9 13.5Z" class="color000000 svgShape" clip-rule="evenodd"/><path fill="#e4177c " fill-rule="evenodd" d="M6.5 6.5C6.5 4.01472 8.51472 2 11 2H12C14.4853 2 16.5 4.01472 16.5 6.5V9H14.5V6.5C14.5 5.11929 13.3807 4 12 4H11C9.61929 4 8.5 5.11929 8.5 6.5V9H6.5V6.5Z" class="color000000 svgShape" clip-rule="evenodd"/></svg>